<svg width="35" height="35" viewBox="0 0 35 35" fill="none" xmlns="http://www.w3.org/2000/svg">
<path d="M29.75 0H5.25C2.34938 0 0 1.95781 0 4.375V30.625C0 33.0422 2.34938 35 5.25 35H29.75C32.6506 35 35 33.0422 35 30.625V4.375C35 1.95781 32.6506 0 29.75 0ZM31.5 30.625C31.5 31.4307 30.7169 32.0833 29.75 32.0833H5.25C4.28312 32.0833 3.5 31.4307 3.5 30.625V4.375C3.5 3.56927 4.28312 2.91667 5.25 2.91667H29.75C30.7169 2.91667 31.5 3.56927 31.5 4.375V30.625ZM24.5 24.7917H10.5C10.0359 24.7917 9.59075 24.9453 9.26256 25.2188C8.93437 25.4923 8.75 25.8632 8.75 26.25C8.75 26.6368 8.93437 27.0077 9.26256 27.2812C9.59075 27.5547 10.0359 27.7083 10.5 27.7083H24.5C24.9641 27.7083 25.4093 27.5547 25.7374 27.2812C26.0656 27.0077 26.25 26.6368 26.25 26.25C26.25 25.8632 26.0656 25.4923 25.7374 25.2188C25.4093 24.9453 24.9641 24.7917 24.5 24.7917ZM24.5 18.9583H10.5C10.0359 18.9583 9.59075 19.112 9.26256 19.3855C8.93437 19.659 8.75 20.0299 8.75 20.4167C8.75 20.8034 8.93437 21.1744 9.26256 21.4479C9.59075 21.7214 10.0359 21.875 10.5 21.875H24.5C24.9641 21.875 25.4093 21.7214 25.7374 21.4479C26.0656 21.1744 26.25 20.8034 26.25 20.4167C26.25 20.0299 26.0656 19.659 25.7374 19.3855C25.4093 19.112 24.9641 18.9583 24.5 18.9583ZM24.5 13.125H10.5C10.0359 13.125 9.59075 13.2786 9.26256 13.5521C8.93437 13.8256 8.75 14.1966 8.75 14.5833C8.75 14.9701 8.93437 15.341 9.26256 15.6145C9.59075 15.888 10.0359 16.0417 10.5 16.0417H24.5C24.9641 16.0417 25.4093 15.888 25.7374 15.6145C26.0656 15.341 26.25 14.9701 26.25 14.5833C26.25 14.1966 26.0656 13.8256 25.7374 13.5521C25.4093 13.2786 24.9641 13.125 24.5 13.125ZM10.5 10.2083H17.5C17.9641 10.2083 18.4092 10.0547 18.7374 9.7812C19.0656 9.50771 19.25 9.13677 19.25 8.75C19.25 8.36323 19.0656 7.99229 18.7374 7.7188C18.4092 7.44531 17.9641 7.29167 17.5 7.29167H10.5C10.0359 7.29167 9.59075 7.44531 9.26256 7.7188C8.93437 7.99229 8.75 8.36323 8.75 8.75C8.75 9.13677 8.93437 9.50771 9.26256 9.7812C9.59075 10.0547 10.0359 10.2083 10.5 10.2083Z" fill="white"/>
</svg>
