<svg xmlns="http://www.w3.org/2000/svg" xmlns:xlink="http://www.w3.org/1999/xlink" width="50" zoomAndPan="magnify" viewBox="0 0 37.5 37.499999" height="50" preserveAspectRatio="xMidYMid meet" version="1.0"><defs><g/><clipPath id="id1"><path d="M 21 30 L 22 30 L 22 30.652344 L 21 30.652344 Z M 21 30 " clip-rule="nonzero"/></clipPath><clipPath id="id2"><path d="M 0 26.152344 L 1 26.152344 L 1 27 L 0 27 Z M 0 26.152344 " clip-rule="nonzero"/></clipPath><clipPath id="id3"><path d="M 0 26.152344 L 1 26.152344 L 1 27 L 0 27 Z M 0 26.152344 " clip-rule="nonzero"/></clipPath><clipPath id="id4"><path d="M 0 26.152344 L 1 26.152344 L 1 27 L 0 27 Z M 0 26.152344 " clip-rule="nonzero"/></clipPath><clipPath id="id5"><path d="M 30 26.152344 L 31 26.152344 L 31 27 L 30 27 Z M 30 26.152344 " clip-rule="nonzero"/></clipPath><clipPath id="id6"><path d="M 29 26.152344 L 30 26.152344 L 30 27 L 29 27 Z M 29 26.152344 " clip-rule="nonzero"/></clipPath><clipPath id="id7"><path d="M 0 26.152344 L 1 26.152344 L 1 27 L 0 27 Z M 0 26.152344 " clip-rule="nonzero"/></clipPath><clipPath id="id8"><path d="M 20 26.152344 L 21 26.152344 L 21 27 L 20 27 Z M 20 26.152344 " clip-rule="nonzero"/></clipPath><clipPath id="id9"><path d="M 0.246094 26.152344 L 37.007812 26.152344 L 37.007812 30.652344 L 0.246094 30.652344 Z M 0.246094 26.152344 " clip-rule="nonzero"/></clipPath></defs><path fill="#ffffff" d="M 22.453125 29.300781 L 22.4375 29.316406 L 22.453125 29.300781 " fill-opacity="1" fill-rule="nonzero"/><path fill="#ffffff" d="M 23.214844 27.957031 L 23.308594 27.953125 C 23.246094 27.953125 23.226562 27.953125 23.214844 27.957031 " fill-opacity="1" fill-rule="nonzero"/><path fill="#ffffff" d="M 17.851562 29.535156 L 17.859375 29.53125 C 17.789062 29.535156 17.691406 29.535156 17.535156 29.539062 L 17.851562 29.535156 " fill-opacity="1" fill-rule="nonzero"/><path fill="#ffffff" d="M 13.96875 28.5 L 13.867188 28.511719 C 13.914062 28.507812 13.945312 28.507812 13.96875 28.5 " fill-opacity="1" fill-rule="nonzero"/><path fill="#ffffff" d="M 16.53125 27.90625 C 16.5 27.910156 16.449219 27.914062 16.402344 27.917969 C 16.464844 27.917969 16.511719 27.914062 16.53125 27.90625 " fill-opacity="1" fill-rule="nonzero"/><path fill="#ffffff" d="M 16.996094 29.613281 L 16.863281 29.589844 C 16.867188 29.597656 16.914062 29.609375 16.996094 29.613281 " fill-opacity="1" fill-rule="nonzero"/><g clip-path="url(#id1)"><path fill="#ffffff" d="M 21.589844 30.128906 L 21.582031 30.121094 L 21.589844 30.128906 " fill-opacity="1" fill-rule="nonzero"/></g><path fill="#ffffff" d="M 19.828125 29.65625 C 19.789062 29.65625 19.746094 29.652344 19.699219 29.644531 C 19.753906 29.65625 19.824219 29.664062 19.828125 29.65625 " fill-opacity="1" fill-rule="nonzero"/><path fill="#ffffff" d="M 19.636719 29.644531 C 19.65625 29.644531 19.675781 29.644531 19.699219 29.644531 C 19.664062 29.640625 19.636719 29.640625 19.636719 29.644531 " fill-opacity="1" fill-rule="nonzero"/><g clip-path="url(#id2)"><path fill="#ffffff" d="M 0.976562 26.753906 C 0.839844 26.757812 0.726562 26.78125 0.605469 26.796875 L 0.976562 26.753906 " fill-opacity="1" fill-rule="nonzero"/></g><path fill="#ffffff" d="M 28.746094 28.113281 L 28.714844 28.121094 C 28.742188 28.121094 28.746094 28.117188 28.746094 28.113281 " fill-opacity="1" fill-rule="nonzero"/><g clip-path="url(#id3)"><path fill="#ffffff" d="M 0.816406 26.949219 L 0.71875 26.949219 C 0.753906 26.953125 0.785156 26.953125 0.816406 26.949219 " fill-opacity="1" fill-rule="nonzero"/></g><path fill="#ffffff" d="M 17.882812 29.15625 C 18.015625 29.132812 18.292969 29.148438 18.289062 29.128906 C 18.148438 29.136719 17.945312 29.125 17.882812 29.15625 " fill-opacity="1" fill-rule="nonzero"/><g clip-path="url(#id4)"><path fill="#ffffff" d="M 0.816406 26.949219 L 0.925781 26.949219 L 0.890625 26.941406 C 0.867188 26.945312 0.84375 26.949219 0.816406 26.949219 " fill-opacity="1" fill-rule="nonzero"/></g><g clip-path="url(#id5)"><path fill="#ffffff" d="M 30.210938 26.359375 L 30.21875 26.359375 L 30.25 26.355469 Z M 30.210938 26.359375 " fill-opacity="1" fill-rule="nonzero"/></g><g clip-path="url(#id6)"><path fill="#ffffff" d="M 29.390625 26.289062 C 29.449219 26.289062 29.503906 26.289062 29.566406 26.289062 C 29.472656 26.285156 29.425781 26.285156 29.390625 26.289062 " fill-opacity="1" fill-rule="nonzero"/></g><g clip-path="url(#id7)"><path fill="#ffffff" d="M 0.605469 26.796875 L 0.394531 26.824219 C 0.472656 26.816406 0.539062 26.808594 0.605469 26.796875 " fill-opacity="1" fill-rule="nonzero"/></g><g clip-path="url(#id8)"><path fill="#ffffff" d="M 20.546875 26.1875 C 20.578125 26.1875 20.601562 26.1875 20.628906 26.183594 C 20.59375 26.183594 20.566406 26.1875 20.546875 26.1875 " fill-opacity="1" fill-rule="nonzero"/></g><path fill="#ffffff" d="M 17.15625 27.914062 C 17.175781 27.914062 17.203125 27.917969 17.226562 27.917969 C 17.234375 27.914062 17.230469 27.910156 17.15625 27.914062 " fill-opacity="1" fill-rule="nonzero"/><path fill="#ffffff" d="M 11.40625 28.660156 C 11.304688 28.664062 11.160156 28.691406 11.085938 28.714844 C 11.1875 28.703125 11.28125 28.691406 11.40625 28.660156 " fill-opacity="1" fill-rule="nonzero"/><path fill="#ffffff" d="M 10.398438 28.257812 L 10.371094 28.261719 L 10.425781 28.777344 L 10.433594 28.777344 L 10.425781 28.777344 L 10.371094 28.261719 L 10.398438 28.257812 " fill-opacity="1" fill-rule="nonzero"/><path fill="#ffffff" d="M 16.910156 28.511719 L 16.910156 28.507812 L 16.90625 28.511719 Z M 16.910156 28.511719 " fill-opacity="1" fill-rule="nonzero"/><path fill="#ffffff" d="M 15.613281 28.527344 C 15.59375 28.523438 15.558594 28.519531 15.527344 28.519531 C 15.546875 28.523438 15.578125 28.523438 15.613281 28.527344 " fill-opacity="1" fill-rule="nonzero"/><g clip-path="url(#id9)"><path fill="#ffffff" d="M 25.863281 27.207031 C 24.632812 27.21875 23.039062 27.230469 21.816406 27.238281 C 21.550781 27.285156 21.164062 27.292969 20.773438 27.308594 L 20.734375 27.253906 L 20.410156 27.277344 C 20.277344 27.265625 20.660156 27.261719 20.421875 27.246094 L 20.300781 27.285156 C 20.277344 27.261719 19.464844 27.296875 20.011719 27.238281 L 18.746094 27.28125 C 18.46875 27.292969 18.585938 27.339844 18.277344 27.339844 C 18.214844 27.324219 18.386719 27.320312 18.359375 27.300781 C 17.429688 27.308594 17.296875 27.472656 16.433594 27.511719 L 16.503906 27.5 C 16.433594 27.511719 16.324219 27.523438 16.238281 27.53125 C 16.148438 27.542969 16.078125 27.550781 16.078125 27.554688 C 16.191406 27.605469 16.230469 27.507812 16.496094 27.523438 C 16.476562 27.574219 16.167969 27.578125 16.1875 27.613281 C 15.988281 27.613281 15.871094 27.648438 15.695312 27.667969 C 15.394531 27.660156 14.964844 27.722656 14.738281 27.707031 C 14.59375 27.738281 14.433594 27.800781 14.117188 27.835938 C 13.890625 27.820312 14.167969 27.792969 13.859375 27.808594 L 13.8125 27.84375 C 13.5625 27.863281 13.601562 27.851562 13.609375 27.835938 C 13.339844 27.867188 13.386719 27.902344 13.050781 27.917969 L 13.234375 27.871094 C 12.988281 27.910156 12.886719 27.914062 12.539062 27.949219 C 12.542969 27.933594 12.683594 27.917969 12.785156 27.914062 C 12.59375 27.890625 12.464844 27.96875 12.363281 27.972656 C 12.394531 27.984375 12.632812 27.960938 12.519531 28.003906 C 12.347656 28.015625 12.15625 28.082031 12.03125 28.0625 L 12.214844 28.015625 C 11.859375 28.078125 12.027344 28.070312 11.613281 28.109375 C 11.636719 28.101562 11.625 28.097656 11.632812 28.089844 C 11.375 28.15625 11.035156 28.164062 10.648438 28.203125 L 10.722656 28.1875 C 10.566406 28.21875 10.484375 28.25 10.398438 28.257812 C 10.621094 28.25 10.5625 28.265625 10.585938 28.289062 C 10.507812 28.285156 10.4375 28.292969 10.375 28.304688 L 10.417969 28.738281 C 10.601562 28.707031 10.769531 28.636719 11.117188 28.621094 C 11.113281 28.636719 11 28.667969 10.871094 28.667969 C 10.71875 28.730469 10.699219 28.773438 10.429688 28.828125 L 10.363281 28.214844 L 10.378906 28.210938 L 10.363281 28.210938 L 10.429688 28.828125 C 10.601562 28.796875 10.796875 28.769531 10.757812 28.792969 L 10.808594 28.742188 C 10.917969 28.730469 11 28.722656 11.082031 28.714844 C 11.125 28.679688 10.859375 28.691406 11.109375 28.648438 C 11.390625 28.605469 11.261719 28.679688 11.304688 28.652344 C 11.695312 28.601562 11.464844 28.589844 11.839844 28.574219 C 11.800781 28.582031 11.730469 28.59375 11.695312 28.59375 C 11.96875 28.589844 12.359375 28.535156 12.441406 28.585938 C 12.402344 28.597656 12.394531 28.613281 12.292969 28.617188 L 12.296875 28.609375 C 12.003906 28.667969 12.542969 28.582031 12.453125 28.636719 C 12.429688 28.609375 12.808594 28.59375 12.980469 28.589844 L 12.925781 28.558594 C 13.488281 28.429688 12.898438 28.625 13.457031 28.585938 C 13.8125 28.546875 13.324219 28.585938 13.542969 28.550781 C 13.78125 28.542969 13.875 28.574219 14.226562 28.546875 C 14.324219 28.554688 14.527344 28.570312 14.542969 28.605469 C 14.757812 28.585938 15.195312 28.605469 15.320312 28.570312 C 14.949219 28.542969 14.953125 28.617188 14.523438 28.578125 L 14.640625 28.539062 C 14.941406 28.53125 15.320312 28.507812 15.527344 28.519531 C 15.484375 28.511719 15.464844 28.503906 15.492188 28.496094 C 15.914062 28.476562 16.039062 28.4375 16.449219 28.445312 C 16.503906 28.476562 16.261719 28.472656 16.085938 28.480469 C 16.355469 28.503906 16.367188 28.476562 16.777344 28.488281 C 16.800781 28.515625 16.5 28.488281 16.453125 28.515625 L 16.910156 28.503906 L 16.910156 28.507812 C 16.976562 28.460938 17.257812 28.511719 17.539062 28.496094 C 18.203125 28.496094 18.304688 28.429688 18.671875 28.390625 C 18.769531 28.402344 18.800781 28.414062 18.757812 28.425781 C 18.59375 28.40625 18.625 28.425781 18.566406 28.4375 C 18.792969 28.429688 19.058594 28.484375 18.933594 28.503906 C 19.289062 28.488281 18.804688 28.476562 19.023438 28.460938 L 19.511719 28.460938 C 19.453125 28.4375 19.28125 28.433594 19.53125 28.414062 C 19.746094 28.40625 19.847656 28.410156 20.128906 28.40625 C 20.085938 28.421875 20.214844 28.445312 20.007812 28.445312 C 20.140625 28.453125 20.351562 28.453125 20.433594 28.425781 C 20.128906 28.410156 20.933594 28.398438 20.703125 28.363281 L 21.011719 28.378906 C 20.941406 28.378906 20.933594 28.398438 20.832031 28.394531 C 20.917969 28.429688 21.078125 28.378906 21.183594 28.375 C 21.289062 28.378906 21.566406 28.382812 21.589844 28.398438 C 21.683594 28.386719 21.917969 28.402344 21.960938 28.421875 C 22.105469 28.414062 21.972656 28.394531 22.015625 28.386719 L 22.5 28.402344 C 22.523438 28.425781 22.5625 28.484375 22.488281 28.488281 C 22.671875 28.476562 22.554688 28.429688 22.832031 28.441406 C 22.671875 28.476562 23.199219 28.488281 22.964844 28.527344 C 23.121094 28.5625 23.574219 28.585938 23.824219 28.589844 C 23.976562 28.570312 23.554688 28.554688 23.570312 28.523438 C 24.269531 28.554688 24.320312 28.472656 24.828125 28.53125 L 24.699219 28.507812 C 25.019531 28.519531 24.984375 28.523438 25.171875 28.511719 C 25.078125 28.546875 25.523438 28.652344 26.035156 28.730469 C 26.082031 28.71875 25.753906 28.644531 25.84375 28.628906 L 26.183594 28.679688 C 26.207031 28.6875 26.171875 28.6875 26.125 28.683594 C 26.3125 28.710938 26.46875 28.773438 26.574219 28.8125 L 26.609375 28.433594 C 26.523438 28.441406 26.460938 28.449219 26.429688 28.472656 L 26.105469 28.460938 L 26.234375 28.464844 C 26.191406 28.492188 25.84375 28.546875 25.769531 28.5625 C 25.417969 28.632812 25.285156 28.632812 25.085938 28.632812 C 25.152344 28.640625 25.3125 28.660156 25.03125 28.699219 C 25.027344 28.636719 24.4375 28.75 24.441406 28.714844 C 24.328125 28.726562 24.125 28.730469 24.113281 28.757812 L 24.128906 28.714844 C 24.109375 28.777344 23.691406 28.820312 23.375 28.863281 C 23.441406 28.777344 23.027344 28.902344 22.882812 28.847656 C 22.824219 28.90625 22.320312 28.921875 22.265625 28.96875 C 22.023438 28.996094 22.042969 28.945312 21.980469 28.933594 L 21.867188 28.960938 C 21.742188 28.949219 21.28125 28.980469 21.007812 28.984375 L 20.753906 29.050781 L 20.660156 29.035156 C 20.617188 29.046875 20.410156 29.070312 20.539062 29.078125 L 20.402344 29.082031 C 20.394531 29.132812 20.210938 29.113281 19.933594 29.148438 C 19.871094 29.144531 19.886719 29.128906 19.945312 29.121094 C 19.808594 29.128906 19.867188 29.097656 19.792969 29.085938 C 19.890625 29.09375 19.300781 29.203125 19.671875 29.207031 C 19.699219 29.226562 19.484375 29.253906 19.347656 29.25 L 19.261719 29.210938 L 19.101562 29.265625 C 18.890625 29.28125 18.800781 29.257812 18.628906 29.257812 C 18.800781 29.246094 19.015625 29.15625 18.5625 29.171875 C 18.800781 29.160156 18.914062 29.125 19.039062 29.113281 C 18.945312 29.113281 18.898438 29.113281 19.042969 29.085938 C 18.6875 29.117188 18.925781 29.121094 18.574219 29.140625 C 18.59375 29.097656 18.496094 29.085938 18.1875 29.085938 L 18.417969 29.105469 L 18.375 29.117188 C 18.460938 29.121094 18.488281 29.125 18.507812 29.140625 C 18.4375 29.144531 18.101562 29.207031 18.042969 29.183594 C 18.394531 29.238281 17.429688 29.25 17.652344 29.28125 C 17.613281 29.292969 17.367188 29.300781 17.34375 29.28125 C 17.636719 29.246094 17.121094 29.238281 17.167969 29.207031 C 17.058594 29.222656 17.398438 29.234375 17.253906 29.253906 C 17.078125 29.257812 16.949219 29.234375 16.851562 29.222656 L 16.925781 29.214844 L 16.65625 29.199219 C 16.609375 29.21875 16.917969 29.230469 16.667969 29.242188 C 16.601562 29.234375 16.355469 29.246094 16.363281 29.230469 C 16.480469 29.203125 16.394531 29.164062 16.605469 29.15625 C 16.519531 29.160156 16.339844 29.164062 16.207031 29.167969 L 16.207031 29.675781 C 16.34375 29.671875 16.433594 29.660156 16.316406 29.640625 L 16.527344 29.640625 C 16.394531 29.625 16.027344 29.59375 16.449219 29.585938 L 16.445312 29.59375 L 16.738281 29.566406 L 16.863281 29.589844 C 16.859375 29.578125 16.90625 29.570312 17.015625 29.574219 C 17.042969 29.585938 17.144531 29.59375 17.136719 29.609375 C 17.449219 29.613281 17.425781 29.59375 17.46875 29.582031 C 17.640625 29.585938 17.707031 29.597656 17.625 29.617188 C 17.863281 29.632812 18.285156 29.652344 18.445312 29.6875 C 18.765625 29.695312 18.378906 29.671875 18.570312 29.660156 C 18.839844 29.75 19.621094 29.789062 20.136719 29.875 C 20.007812 29.789062 20.277344 29.894531 20.382812 29.855469 C 20.269531 29.851562 20.863281 30.003906 20.410156 29.929688 C 20.503906 29.941406 20.59375 29.960938 20.683594 29.980469 C 20.863281 30.050781 20.226562 29.910156 20.503906 30.015625 C 20.804688 30.078125 21.019531 30.054688 21.371094 30.171875 C 21.242188 30.183594 21.648438 30.234375 21.550781 30.257812 C 21.472656 30.25 21.375 30.21875 21.273438 30.195312 L 21.332031 30.21875 C 21.988281 30.417969 21.539062 30.222656 21.890625 30.296875 C 22.292969 30.417969 22.191406 30.433594 22.210938 30.460938 C 22.269531 30.492188 22.46875 30.550781 22.578125 30.582031 C 22.328125 30.519531 22.140625 30.398438 22.257812 30.410156 C 22.417969 30.511719 22.84375 30.628906 22.957031 30.652344 C 22.414062 30.382812 22.570312 30.496094 22.050781 30.257812 C 21.972656 30.25 21.972656 30.296875 21.65625 30.179688 C 21.863281 30.21875 21.648438 30.152344 21.589844 30.128906 C 21.648438 30.171875 21.363281 30.074219 21.261719 30.058594 C 21.175781 30.015625 21.472656 30.050781 21.140625 29.957031 L 21.0625 30 C 20.9375 29.960938 21.128906 29.96875 20.847656 29.917969 C 21.003906 29.921875 20.8125 29.859375 21.191406 29.941406 C 20.753906 29.777344 20.492188 29.8125 20.136719 29.769531 C 20.171875 29.769531 20.179688 29.761719 20.214844 29.765625 C 20.136719 29.765625 20 29.742188 19.894531 29.730469 C 19.660156 29.679688 20.085938 29.734375 20.027344 29.707031 L 19.644531 29.648438 L 19.636719 29.644531 C 19.535156 29.640625 19.4375 29.632812 19.40625 29.613281 C 19.523438 29.605469 19.570312 29.59375 19.648438 29.585938 L 19.242188 29.578125 C 19.289062 29.5625 18.914062 29.507812 19.199219 29.523438 C 19 29.503906 18.800781 29.484375 18.605469 29.472656 L 18.558594 29.429688 C 18.414062 29.421875 18.410156 29.429688 18.578125 29.449219 C 18.375 29.417969 17.667969 29.464844 17.78125 29.390625 C 17.308594 29.40625 17.140625 29.386719 16.570312 29.402344 C 17.011719 29.367188 16.070312 29.355469 16.535156 29.335938 C 16.378906 29.324219 16.292969 29.335938 16.207031 29.347656 L 16.207031 29.496094 C 16.269531 29.484375 16.332031 29.476562 16.421875 29.472656 C 16.621094 29.492188 16.53125 29.53125 16.316406 29.546875 L 16.570312 29.527344 L 16.5625 29.535156 L 16.785156 29.511719 C 17.019531 29.53125 16.835938 29.550781 17.078125 29.554688 L 17.128906 29.519531 L 17.296875 29.535156 C 17.230469 29.519531 17.375 29.511719 17.550781 29.503906 L 17.546875 29.515625 L 17.761719 29.5 C 17.550781 29.53125 17.957031 29.503906 17.859375 29.53125 C 18.042969 29.53125 18.046875 29.53125 18.378906 29.511719 L 18.320312 29.488281 C 18.75 29.453125 18.335938 29.527344 18.6875 29.515625 L 18.664062 29.488281 C 19.167969 29.515625 19.515625 29.421875 19.886719 29.433594 C 19.671875 29.449219 19.726562 29.480469 19.734375 29.472656 C 20.050781 29.445312 20.570312 29.417969 20.898438 29.359375 C 21.023438 29.394531 21.050781 29.402344 21.394531 29.398438 C 21.640625 29.375 21.675781 29.367188 21.753906 29.339844 C 21.992188 29.335938 22.441406 29.269531 22.453125 29.300781 C 22.507812 29.269531 22.667969 29.285156 22.796875 29.253906 L 22.828125 29.261719 L 22.804688 29.234375 C 23.234375 29.257812 23.515625 29.128906 23.945312 29.136719 L 23.871094 29.152344 L 24.050781 29.121094 C 24.082031 29.128906 24.007812 29.144531 24.003906 29.164062 L 24.835938 29.070312 L 24.667969 29.070312 C 24.84375 29.046875 24.960938 29.003906 25.160156 28.996094 C 24.832031 29.082031 25.4375 28.964844 25.496094 28.988281 L 25.320312 29.023438 C 25.5625 28.988281 25.5625 28.988281 25.539062 28.960938 C 25.851562 28.910156 25.761719 28.988281 26.050781 28.917969 L 25.84375 28.945312 C 25.777344 28.9375 25.925781 28.894531 26.0625 28.875 C 26.097656 28.875 26.195312 28.875 26.089844 28.890625 C 26.261719 28.859375 26.496094 28.832031 26.65625 28.808594 L 26.6875 28.453125 C 26.613281 28.429688 26.550781 28.414062 26.515625 28.40625 C 26.378906 28.363281 26.429688 28.355469 26.503906 28.363281 C 26.230469 28.316406 26.167969 28.304688 26.105469 28.292969 C 26.046875 28.28125 25.984375 28.265625 25.710938 28.242188 L 25.722656 28.226562 L 25.535156 28.222656 L 25.277344 28.15625 L 25.371094 28.1875 C 25.191406 28.171875 25.082031 28.171875 24.875 28.140625 L 24.960938 28.125 C 24.460938 28.09375 24.386719 28.035156 23.914062 28.035156 C 23.878906 28.027344 23.953125 28.027344 23.992188 28.023438 C 23.550781 28.035156 23.664062 27.960938 23.21875 27.980469 C 23.246094 27.976562 23.199219 27.964844 23.214844 27.957031 L 23.015625 27.964844 L 23.03125 27.933594 L 22.867188 27.972656 L 22.742188 27.933594 L 22.664062 27.949219 C 22.449219 27.875 22.144531 27.914062 21.851562 27.863281 L 21.902344 27.902344 C 21.152344 27.972656 20.207031 27.878906 19.316406 27.914062 L 19.332031 27.882812 L 18.964844 27.921875 C 18.769531 27.898438 19.082031 27.894531 19.023438 27.875 C 18.628906 27.894531 18.859375 27.925781 18.402344 27.9375 C 18.164062 27.914062 18.484375 27.914062 18.59375 27.898438 C 18.164062 27.917969 17.53125 27.9375 17.226562 27.917969 L 17.214844 27.929688 C 16.929688 27.949219 16.550781 27.933594 16.234375 27.9375 C 16.242188 27.921875 16.320312 27.921875 16.402344 27.917969 C 16.285156 27.914062 16.132812 27.90625 16.035156 27.921875 L 16.152344 27.894531 C 15.910156 27.890625 15.445312 27.921875 15.390625 27.890625 C 15.417969 27.902344 15.40625 27.925781 15.195312 27.929688 C 15.082031 27.878906 14.625 27.960938 14.289062 27.945312 C 14.328125 27.929688 14.574219 27.921875 14.507812 27.921875 C 14.335938 27.914062 14.1875 27.941406 14.039062 27.960938 L 14.082031 27.941406 L 13.300781 28 C 13.179688 27.953125 12.558594 28.042969 12.613281 28.007812 C 12.332031 28.019531 12.847656 28.015625 12.492188 28.042969 C 12.398438 28.023438 12.171875 28.070312 12.1875 28.039062 L 12.222656 28.03125 L 11.976562 28.054688 L 12.128906 28.007812 C 11.917969 28.03125 11.761719 28.074219 11.753906 28.101562 C 11.550781 28.097656 11.265625 28.140625 11.171875 28.121094 L 11.246094 28.105469 C 10.898438 28.144531 10.621094 28.144531 10.355469 28.15625 L 10.433594 28.882812 C 10.601562 28.875 10.761719 28.859375 10.929688 28.816406 C 10.960938 28.816406 10.960938 28.824219 10.890625 28.832031 L 11.238281 28.792969 L 11.15625 28.828125 L 11.726562 28.726562 L 11.722656 28.742188 C 12.101562 28.707031 12.695312 28.628906 13.179688 28.570312 L 13.109375 28.585938 C 13.636719 28.503906 13.625 28.546875 14.011719 28.492188 L 13.96875 28.5 L 14.320312 28.464844 L 14.246094 28.488281 C 14.5 28.425781 14.988281 28.460938 14.828125 28.445312 C 14.972656 28.417969 15.222656 28.375 15.265625 28.351562 C 15.648438 28.316406 15.359375 28.363281 15.597656 28.355469 C 15.875 28.332031 15.921875 28.300781 16.296875 28.285156 L 16.289062 28.300781 C 16.464844 28.285156 16.574219 28.265625 16.816406 28.246094 L 16.746094 28.257812 C 17.140625 28.195312 17.242188 28.269531 17.550781 28.179688 C 17.71875 28.183594 18.035156 28.15625 18.023438 28.1875 C 18.515625 28.140625 18.902344 28.113281 19.394531 28.082031 C 19.476562 28.132812 19.5 28.074219 19.800781 28.09375 L 19.777344 28.066406 C 20.476562 28.039062 21.28125 28.097656 22.050781 28.078125 L 22.070312 28.109375 L 22.226562 28.074219 C 23.054688 28.085938 24.128906 28.097656 24.789062 28.105469 C 25.007812 28.089844 25.335938 28.058594 25.683594 28.074219 L 25.648438 28.078125 C 26.246094 28.066406 26.882812 28.0625 27.535156 28.089844 C 27.496094 28.101562 27.5625 28.109375 27.488281 28.117188 C 27.644531 28.089844 27.871094 28.121094 28.011719 28.125 L 27.847656 28.101562 C 28.035156 28.074219 28.300781 28.105469 28.394531 28.128906 L 28.691406 28.101562 L 28.746094 28.113281 L 28.796875 28.097656 L 28.953125 28.140625 C 29.027344 28.132812 29.417969 28.128906 29.539062 28.09375 C 29.566406 28.105469 29.84375 28.121094 29.628906 28.125 L 30.707031 28.148438 L 30.539062 28.132812 C 30.515625 28.105469 30.839844 28.089844 31.007812 28.105469 C 30.789062 28.125 30.988281 28.144531 31.082031 28.167969 C 31.230469 28.15625 30.957031 28.140625 31.035156 28.125 C 31.21875 28.109375 31.609375 28.105469 31.703125 28.121094 L 31.59375 28.128906 C 31.84375 28.121094 31.960938 28.171875 32.207031 28.175781 C 32.425781 28.15625 32.589844 28.179688 32.542969 28.128906 C 32.863281 28.121094 32.667969 28.164062 32.769531 28.171875 C 32.921875 28.148438 33.367188 28.167969 33.425781 28.195312 C 33.601562 28.125 34.285156 28.234375 34.351562 28.171875 L 34.613281 28.210938 C 34.621094 28.195312 34.675781 28.15625 34.886719 28.15625 C 35.085938 28.175781 35.039062 28.203125 35.101562 28.21875 L 35.234375 28.160156 C 35.804688 28.203125 36.464844 28.214844 37.140625 28.230469 L 37.253906 27.453125 C 36.578125 27.238281 35.878906 27.0625 35.246094 26.90625 C 34.679688 26.800781 33.960938 26.710938 33.300781 26.621094 L 33.375 26.621094 C 33.15625 26.585938 32.9375 26.558594 32.71875 26.527344 L 33.191406 26.609375 C 33.046875 26.601562 32.933594 26.597656 32.796875 26.582031 C 32.074219 26.476562 31.109375 26.371094 30.21875 26.359375 C 29.636719 26.402344 29.835938 26.277344 29.28125 26.308594 C 29.332031 26.304688 29.347656 26.296875 29.390625 26.289062 C 28.796875 26.289062 28.472656 26.292969 27.878906 26.320312 C 27.949219 26.253906 27.492188 26.3125 27.546875 26.277344 L 27.496094 26.304688 C 27.363281 26.285156 27.054688 26.273438 27.101562 26.253906 L 26.835938 26.28125 L 26.816406 26.253906 C 26.46875 26.242188 25.722656 26.253906 25.539062 26.191406 C 24.679688 26.21875 23.324219 26.191406 22.246094 26.175781 C 22.09375 26.199219 21.777344 26.199219 21.53125 26.199219 L 21.269531 26.164062 C 21.019531 26.175781 20.753906 26.21875 20.519531 26.195312 L 20.546875 26.1875 C 20.292969 26.195312 20.050781 26.175781 19.8125 26.210938 C 19.535156 26.207031 19.265625 26.191406 19.351562 26.15625 C 19.324219 26.214844 18.757812 26.152344 18.757812 26.152344 C 18.757812 26.152344 15.179688 26.132812 11.167969 26.234375 C 7.15625 26.332031 2.714844 26.535156 0.976562 26.753906 C 0.859375 26.789062 0.535156 26.816406 0.660156 26.847656 C 0.410156 26.867188 0.292969 26.820312 0.246094 26.851562 C 0.589844 26.859375 0.144531 26.929688 0.476562 26.953125 L 0.265625 26.96875 C 0.222656 26.988281 0.554688 26.933594 0.503906 26.972656 L 0.5625 26.917969 C 0.734375 26.917969 0.828125 26.925781 0.890625 26.941406 C 1.054688 26.914062 1.15625 26.839844 1.542969 26.855469 L 1.4375 26.863281 C 1.753906 26.847656 1.632812 26.890625 1.699219 26.894531 L 1.628906 26.898438 L 1.894531 26.914062 C 1.691406 26.90625 1.359375 26.960938 1.535156 26.949219 C 1.914062 26.953125 1.4375 26.941406 1.71875 26.925781 C 1.894531 26.914062 1.847656 26.945312 1.839844 26.960938 L 2.15625 26.949219 C 2.144531 26.972656 1.945312 26.957031 2.074219 26.976562 L 2.472656 26.9375 C 2.546875 26.996094 2.902344 26.890625 3.085938 26.941406 C 2.800781 26.96875 3.113281 26.960938 3.066406 26.984375 L 3.765625 26.957031 C 3.832031 26.960938 3.582031 26.980469 3.691406 26.976562 C 3.820312 26.988281 3.90625 26.953125 3.976562 26.949219 C 4.039062 26.964844 4.5 26.933594 4.480469 26.972656 C 4.957031 26.988281 4.679688 26.914062 5.121094 26.925781 C 5.179688 26.945312 4.769531 26.941406 4.96875 26.960938 L 5.425781 26.9375 C 5.386719 26.949219 5.339844 26.980469 5.167969 26.980469 C 6.40625 26.972656 7.082031 27.085938 8.214844 27.019531 C 8.375 27.042969 8.097656 27.042969 7.984375 27.066406 C 8.804688 27 9.144531 27.097656 9.839844 27.074219 L 9.855469 27.050781 C 10.828125 27.101562 12.003906 27.027344 13.105469 27.039062 L 12.972656 27.023438 C 13.125 27 13.367188 26.992188 13.550781 26.976562 C 13.578125 26.988281 13.417969 27.03125 13.738281 27.015625 C 13.671875 27.007812 13.535156 27 13.578125 26.988281 C 14.523438 27.035156 16.519531 26.988281 18.074219 27.007812 C 20.179688 26.972656 22.457031 27.027344 24.523438 27.039062 C 24.207031 27.035156 24.34375 26.976562 24.578125 26.996094 C 25.226562 27.109375 25.703125 26.992188 26.367188 27.078125 C 27.570312 27.070312 28.640625 27.179688 29.757812 27.148438 L 29.777344 27.179688 C 29.941406 27.199219 29.988281 27.179688 30.160156 27.1875 L 30.15625 27.195312 C 30.570312 27.222656 31.070312 27.226562 31.304688 27.257812 L 31.320312 27.226562 C 31.566406 27.242188 31.445312 27.261719 31.695312 27.261719 L 31.6875 27.277344 L 31.980469 27.269531 C 31.949219 27.324219 32.667969 27.339844 32.859375 27.390625 C 33.171875 27.410156 33.769531 27.46875 34.238281 27.558594 C 34.320312 27.601562 34.898438 27.703125 35.257812 27.796875 C 35.753906 27.898438 36.394531 28.046875 37.03125 28.246094 L 37.152344 27.402344 C 36.859375 27.398438 36.566406 27.390625 36.285156 27.386719 L 36.300781 27.425781 L 36.058594 27.421875 C 36.058594 27.414062 36.027344 27.410156 36.066406 27.40625 C 35.875 27.363281 35.5 27.414062 35.304688 27.382812 C 35.425781 27.417969 35.476562 27.390625 35.613281 27.394531 C 35.816406 27.414062 35.621094 27.449219 35.351562 27.425781 L 35.355469 27.417969 L 35.171875 27.433594 C 35.152344 27.40625 34.984375 27.390625 34.960938 27.359375 C 34.15625 27.355469 33.609375 27.398438 32.777344 27.375 C 32.863281 27.34375 32.179688 27.375 32.347656 27.320312 C 31.847656 27.335938 32.429688 27.367188 32.199219 27.40625 C 32.058594 27.402344 31.914062 27.414062 31.886719 27.394531 C 31.953125 27.382812 31.777344 27.355469 31.890625 27.355469 L 31.554688 27.355469 C 31.523438 27.347656 31.597656 27.34375 31.632812 27.339844 C 30.953125 27.363281 30.429688 27.285156 29.820312 27.3125 C 29.773438 27.332031 30.0625 27.320312 30.015625 27.339844 C 29.402344 27.371094 29.476562 27.296875 28.902344 27.316406 L 29.023438 27.292969 C 28.835938 27.308594 28.753906 27.332031 28.453125 27.304688 C 28.398438 27.269531 28.710938 27.28125 28.855469 27.265625 C 28.648438 27.261719 28.121094 27.265625 28.28125 27.296875 C 28.03125 27.304688 27.941406 27.273438 27.804688 27.261719 C 27.800781 27.269531 28.039062 27.289062 27.890625 27.300781 C 27.550781 27.277344 27.027344 27.273438 26.609375 27.261719 C 26.613281 27.253906 26.585938 27.242188 26.621094 27.238281 C 26.285156 27.277344 26.324219 27.203125 25.863281 27.207031 " fill-opacity="1" fill-rule="nonzero"/></g><path fill="#ffffff" d="M 17.078125 28.515625 L 16.910156 28.511719 C 16.910156 28.519531 16.902344 28.527344 16.824219 28.535156 L 17.078125 28.515625 " fill-opacity="1" fill-rule="nonzero"/><path fill="#ffffff" d="M 11.632812 28.089844 C 11.65625 28.085938 11.675781 28.082031 11.691406 28.074219 C 11.652344 28.082031 11.640625 28.085938 11.632812 28.089844 " fill-opacity="1" fill-rule="nonzero"/><path fill="#ffffff" d="M 13.554688 27.820312 C 13.417969 27.839844 13.542969 27.835938 13.609375 27.835938 C 13.613281 27.832031 13.609375 27.820312 13.554688 27.820312 " fill-opacity="1" fill-rule="nonzero"/><path fill="#ffffff" d="M 21.589844 28.398438 C 21.558594 28.402344 21.542969 28.40625 21.546875 28.414062 C 21.585938 28.40625 21.59375 28.402344 21.589844 28.398438 " fill-opacity="1" fill-rule="nonzero"/><path fill="#ffffff" d="M 19.257812 29.105469 L 19.304688 29.109375 C 19.296875 29.105469 19.277344 29.105469 19.257812 29.105469 " fill-opacity="1" fill-rule="nonzero"/><path fill="#ffffff" d="M 19.945312 29.121094 C 19.980469 29.117188 20.023438 29.113281 20.085938 29.109375 C 20.027344 29.109375 19.980469 29.113281 19.945312 29.121094 " fill-opacity="1" fill-rule="nonzero"/><path fill="#ffffff" d="M 18.566406 28.4375 C 18.519531 28.4375 18.476562 28.441406 18.4375 28.445312 C 18.507812 28.445312 18.542969 28.441406 18.566406 28.4375 " fill-opacity="1" fill-rule="nonzero"/><path fill="#ffffff" d="M 20.230469 29.089844 L 20.402344 29.082031 L 20.40625 29.078125 Z M 20.230469 29.089844 " fill-opacity="1" fill-rule="nonzero"/><path fill="#ffffff" d="M 19.039062 29.113281 C 19.105469 29.109375 19.195312 29.105469 19.257812 29.105469 C 19.171875 29.101562 19.101562 29.101562 19.039062 29.113281 " fill-opacity="1" fill-rule="nonzero"/><path fill="#ffffff" d="M 26.125 28.683594 L 26.105469 28.683594 C 25.972656 28.671875 26.054688 28.683594 26.125 28.683594 " fill-opacity="1" fill-rule="nonzero"/><path fill="#ffffff" d="M 20.984375 28.984375 L 21.007812 28.984375 L 21.054688 28.96875 Z M 20.984375 28.984375 " fill-opacity="1" fill-rule="nonzero"/><path fill="#ffffff" d="M 18.289062 29.128906 C 18.320312 29.125 18.351562 29.125 18.375 29.117188 C 18.347656 29.117188 18.316406 29.117188 18.277344 29.117188 L 18.289062 29.128906 " fill-opacity="1" fill-rule="nonzero"/><path fill="#ffffff" d="M 24.507812 28.679688 C 24.460938 28.695312 24.445312 28.707031 24.441406 28.714844 C 24.5 28.707031 24.535156 28.695312 24.507812 28.679688 " fill-opacity="1" fill-rule="nonzero"/><g fill="#ffffff" fill-opacity="1"><g transform="translate(0.0000005, 22.191914)"><g><path d="M 2.28125 -4.21875 C 2.21875 -3.675781 2.1875 -3 2.1875 -2.1875 L 2.1875 -1.203125 L 2.15625 -0.234375 C 2.144531 0.015625 2.171875 0.171875 2.234375 0.234375 C 2.285156 0.296875 2.425781 0.320312 2.65625 0.3125 L 3.84375 0.34375 C 4.320312 0.363281 4.710938 0.359375 5.015625 0.328125 L 5.078125 0.3125 L 5.140625 0.3125 C 5.191406 0.3125 5.21875 0.328125 5.21875 0.359375 C 5.226562 0.390625 5.222656 0.429688 5.203125 0.484375 C 5.179688 0.523438 5.15625 0.5625 5.125 0.59375 C 5.082031 0.644531 5.015625 0.671875 4.921875 0.671875 L 4.453125 0.6875 L 3.96875 0.734375 C 3.582031 0.753906 3.265625 0.753906 3.015625 0.734375 C 2.710938 0.703125 2.398438 0.753906 2.078125 0.890625 C 1.753906 1.023438 1.429688 1.082031 1.109375 1.0625 L 0.96875 1.0625 C 0.914062 1.0625 0.875 1.066406 0.84375 1.078125 C 0.664062 1.148438 0.539062 1.140625 0.46875 1.046875 C 0.414062 0.984375 0.375 0.867188 0.34375 0.703125 C 0.175781 -0.234375 0.078125 -1.335938 0.046875 -2.609375 L 0.015625 -4.28125 L 0 -5.953125 C 0 -6.222656 0.00390625 -6.546875 0.015625 -6.921875 L 0.046875 -7.890625 C 0.078125 -8.691406 0.0703125 -9.335938 0.03125 -9.828125 C 0.0195312 -9.941406 0.0507812 -10.007812 0.125 -10.03125 C 0.488281 -10.164062 0.914062 -10.070312 1.40625 -9.75 C 1.664062 -9.570312 1.835938 -9.328125 1.921875 -9.015625 C 1.953125 -8.898438 1.976562 -8.753906 2 -8.578125 L 2.015625 -8.359375 L 2.046875 -8.140625 C 2.234375 -7.078125 2.316406 -5.910156 2.296875 -4.640625 L 2.296875 -4.390625 L 2.28125 -4.296875 Z M 2.28125 -4.21875 "/></g></g></g><g fill="#ffffff" fill-opacity="1"><g transform="translate(5.867193, 22.191914)"><g><path d="M 3.5 -3.75 C 3.476562 -4.175781 3.296875 -4.503906 2.953125 -4.734375 C 2.773438 -4.835938 2.578125 -4.847656 2.359375 -4.765625 C 2.140625 -4.679688 2.015625 -4.539062 1.984375 -4.34375 C 1.972656 -4.238281 1.953125 -4.113281 1.921875 -3.96875 L 1.84375 -3.609375 C 1.769531 -3.304688 1.726562 -3.066406 1.71875 -2.890625 C 1.695312 -2.546875 1.765625 -2.222656 1.921875 -1.921875 C 2.085938 -1.617188 2.3125 -1.398438 2.59375 -1.265625 C 2.8125 -1.160156 2.972656 -1.203125 3.078125 -1.390625 C 3.410156 -2.003906 3.554688 -2.644531 3.515625 -3.3125 Z M 0 -2.890625 C -0.0078125 -3.828125 0.238281 -4.597656 0.75 -5.203125 C 0.988281 -5.484375 1.28125 -5.675781 1.625 -5.78125 C 2 -5.882812 2.363281 -5.863281 2.71875 -5.71875 C 3.289062 -5.488281 3.695312 -5.007812 3.9375 -4.28125 C 4 -4.09375 4.035156 -3.863281 4.046875 -3.59375 L 4.046875 -2.90625 C 4.023438 -1.800781 3.816406 -0.984375 3.421875 -0.453125 C 3.109375 -0.0351562 2.722656 0.09375 2.265625 -0.0625 L 1.90625 -0.171875 L 1.5625 -0.296875 C 1.289062 -0.378906 1.078125 -0.5 0.921875 -0.65625 C 0.316406 -1.195312 0.0078125 -1.941406 0 -2.890625 Z M 0 -2.890625 "/></g></g></g><g fill="#ffffff" fill-opacity="1"><g transform="translate(10.975288, 22.191914)"><g><path d="M 3.5 -3.75 C 3.476562 -4.175781 3.296875 -4.503906 2.953125 -4.734375 C 2.773438 -4.835938 2.578125 -4.847656 2.359375 -4.765625 C 2.140625 -4.679688 2.015625 -4.539062 1.984375 -4.34375 C 1.972656 -4.238281 1.953125 -4.113281 1.921875 -3.96875 L 1.84375 -3.609375 C 1.769531 -3.304688 1.726562 -3.066406 1.71875 -2.890625 C 1.695312 -2.546875 1.765625 -2.222656 1.921875 -1.921875 C 2.085938 -1.617188 2.3125 -1.398438 2.59375 -1.265625 C 2.8125 -1.160156 2.972656 -1.203125 3.078125 -1.390625 C 3.410156 -2.003906 3.554688 -2.644531 3.515625 -3.3125 Z M 0 -2.890625 C -0.0078125 -3.828125 0.238281 -4.597656 0.75 -5.203125 C 0.988281 -5.484375 1.28125 -5.675781 1.625 -5.78125 C 2 -5.882812 2.363281 -5.863281 2.71875 -5.71875 C 3.289062 -5.488281 3.695312 -5.007812 3.9375 -4.28125 C 4 -4.09375 4.035156 -3.863281 4.046875 -3.59375 L 4.046875 -2.90625 C 4.023438 -1.800781 3.816406 -0.984375 3.421875 -0.453125 C 3.109375 -0.0351562 2.722656 0.09375 2.265625 -0.0625 L 1.90625 -0.171875 L 1.5625 -0.296875 C 1.289062 -0.378906 1.078125 -0.5 0.921875 -0.65625 C 0.316406 -1.195312 0.0078125 -1.941406 0 -2.890625 Z M 0 -2.890625 "/></g></g></g><g fill="#ffffff" fill-opacity="1"><g transform="translate(16.083383, 22.191914)"><g><path d="M 4.03125 -0.609375 C 3.882812 -0.890625 3.722656 -1.210938 3.546875 -1.578125 L 3.0625 -2.546875 L 2.921875 -2.859375 L 2.78125 -3.15625 C 2.664062 -3.394531 2.550781 -3.597656 2.4375 -3.765625 C 2.363281 -3.847656 2.367188 -3.941406 2.453125 -4.046875 C 2.597656 -4.273438 2.816406 -4.53125 3.109375 -4.8125 L 3.46875 -5.171875 C 3.601562 -5.304688 3.71875 -5.425781 3.8125 -5.53125 C 3.894531 -5.625 3.914062 -5.710938 3.875 -5.796875 C 3.789062 -5.773438 3.691406 -5.722656 3.578125 -5.640625 L 3.453125 -5.53125 L 3.328125 -5.4375 C 2.804688 -5.03125 2.34375 -4.609375 1.9375 -4.171875 L 1.84375 -4.078125 C 1.8125 -4.046875 1.785156 -4.03125 1.765625 -4.03125 C 1.734375 -4.039062 1.71875 -4.070312 1.71875 -4.125 L 1.71875 -4.25 L 1.6875 -5.0625 C 1.632812 -5.84375 1.550781 -6.445312 1.4375 -6.875 L 1.40625 -7.03125 C 1.375 -7.082031 1.335938 -7.117188 1.296875 -7.140625 L 1.0625 -7.203125 L 0.84375 -7.28125 C 0.65625 -7.34375 0.5 -7.367188 0.375 -7.359375 L 0.25 -7.34375 C 0.207031 -7.332031 0.171875 -7.320312 0.140625 -7.3125 C 0.0664062 -7.28125 0.0234375 -7.203125 0.015625 -7.078125 C 0.00390625 -6.960938 0.0078125 -6.816406 0.03125 -6.640625 L 0.046875 -6.4375 L 0.078125 -6.21875 C 0.117188 -5.570312 0.132812 -4.847656 0.125 -4.046875 L 0.109375 -2.953125 L 0.078125 -1.859375 L 0.015625 0.234375 C 0.015625 0.390625 0.03125 0.5 0.0625 0.5625 C 0.125 0.664062 0.234375 0.710938 0.390625 0.703125 C 0.410156 0.703125 0.441406 0.707031 0.484375 0.71875 L 0.5625 0.765625 C 1.070312 1.003906 1.382812 0.867188 1.5 0.359375 C 1.632812 -0.242188 1.707031 -0.796875 1.71875 -1.296875 L 1.734375 -1.8125 L 1.765625 -2.34375 C 1.785156 -2.757812 1.785156 -3.109375 1.765625 -3.390625 L 1.765625 -3.46875 C 1.773438 -3.5 1.789062 -3.519531 1.8125 -3.53125 C 1.84375 -3.53125 1.863281 -3.515625 1.875 -3.484375 L 1.890625 -3.453125 L 1.90625 -3.40625 L 2.4375 -2.09375 C 2.65625 -1.582031 2.875 -1.160156 3.09375 -0.828125 L 3.234375 -0.578125 L 3.359375 -0.34375 C 3.472656 -0.15625 3.597656 -0.0195312 3.734375 0.0625 L 3.828125 0.109375 L 3.90625 0.140625 C 3.976562 0.160156 4.03125 0.144531 4.0625 0.09375 C 4.1875 -0.09375 4.175781 -0.328125 4.03125 -0.609375 Z M 4.03125 -0.609375 "/></g></g></g><g fill="#ffffff" fill-opacity="1"><g transform="translate(21.391795, 22.191914)"><g/></g></g><g fill="#ffffff" fill-opacity="1"><g transform="translate(24.554701, 22.191914)"><g><path d="M 4.203125 -2.5625 C 4.140625 -2.507812 4.085938 -2.441406 4.046875 -2.359375 C 3.992188 -2.234375 3.925781 -2.128906 3.84375 -2.046875 C 3.78125 -1.972656 3.71875 -1.882812 3.65625 -1.78125 L 3.484375 -1.5 C 3.378906 -1.332031 3.21875 -1.117188 3 -0.859375 L 2.859375 -0.734375 L 2.734375 -0.59375 C 2.578125 -0.4375 2.4375 -0.328125 2.3125 -0.265625 L 2.234375 -0.21875 L 2.171875 -0.171875 C 2.109375 -0.128906 2.066406 -0.0820312 2.046875 -0.03125 L 2.015625 0.03125 L 1.96875 0.078125 C 1.894531 0.210938 1.773438 0.265625 1.609375 0.234375 C 1.546875 0.210938 1.460938 0.179688 1.359375 0.140625 C 1.171875 0.0546875 0.953125 -0.0546875 0.703125 -0.203125 C 0.503906 -0.316406 0.382812 -0.5 0.34375 -0.75 C 0.3125 -0.882812 0.296875 -1.035156 0.296875 -1.203125 C 0.285156 -1.492188 0.269531 -1.742188 0.25 -1.953125 C 0.226562 -2.066406 0.21875 -2.222656 0.21875 -2.421875 L 0.203125 -2.90625 L 0.171875 -3.46875 L 0.140625 -4.015625 L 0.09375 -4.578125 C 0.0820312 -4.796875 0.078125 -4.976562 0.078125 -5.125 L 0.046875 -5.84375 C 0.015625 -6.289062 0 -6.851562 0 -7.53125 L 0 -8.59375 C 0 -8.71875 0.0546875 -8.757812 0.171875 -8.71875 L 0.25 -8.703125 L 0.3125 -8.6875 C 0.375 -8.695312 0.441406 -8.691406 0.515625 -8.671875 L 0.734375 -8.640625 C 0.898438 -8.617188 1.023438 -8.566406 1.109375 -8.484375 C 1.128906 -8.460938 1.164062 -8.445312 1.21875 -8.4375 L 1.28125 -8.4375 L 1.328125 -8.40625 L 1.40625 -8.328125 C 1.4375 -8.296875 1.46875 -8.273438 1.5 -8.265625 C 1.757812 -8.179688 1.910156 -7.976562 1.953125 -7.65625 L 1.984375 -7.265625 L 2.03125 -6.875 L 2.046875 -6.515625 L 2.078125 -6.171875 L 2.09375 -5.90625 L 2.09375 -5.625 L 2.125 -5.21875 L 2.125 -5.03125 L 2.140625 -4.015625 L 2.140625 -3.796875 L 2.15625 -3.578125 L 2.171875 -3.4375 L 2.171875 -3.28125 L 2.203125 -2.625 C 2.210938 -2.363281 2.21875 -2.148438 2.21875 -1.984375 C 2.21875 -1.828125 2.289062 -1.691406 2.4375 -1.578125 C 2.488281 -1.535156 2.539062 -1.539062 2.59375 -1.59375 C 2.632812 -1.625 2.679688 -1.679688 2.734375 -1.765625 L 3.265625 -2.78125 L 3.625 -3.453125 C 3.6875 -3.566406 3.753906 -3.703125 3.828125 -3.859375 L 4 -4.265625 L 4.09375 -4.484375 L 4.1875 -4.6875 C 4.257812 -4.863281 4.296875 -5.03125 4.296875 -5.1875 L 4.3125 -5.65625 L 4.328125 -6.109375 C 4.328125 -6.367188 4.34375 -6.671875 4.375 -7.015625 C 4.382812 -7.148438 4.410156 -7.320312 4.453125 -7.53125 C 4.484375 -7.632812 4.566406 -7.742188 4.703125 -7.859375 C 4.890625 -8.003906 5.113281 -8.128906 5.375 -8.234375 C 5.550781 -8.296875 5.722656 -8.269531 5.890625 -8.15625 L 5.953125 -8.09375 C 6.109375 -8.007812 6.175781 -7.878906 6.15625 -7.703125 L 6.140625 -7.3125 L 6.140625 -6.765625 C 6.160156 -6.648438 6.171875 -6.507812 6.171875 -6.34375 L 6.171875 -5.921875 L 6.1875 -5.5 L 6.21875 -4.953125 L 6.234375 -4.796875 L 6.234375 -4.75 L 6.25 -4.6875 L 6.234375 -4.4375 L 6.25 -4.171875 C 6.257812 -3.941406 6.257812 -3.769531 6.25 -3.65625 C 6.226562 -3.4375 6.21875 -3.128906 6.21875 -2.734375 L 6.21875 -2.265625 L 6.1875 -1.8125 L 6.15625 -1.34375 C 6.144531 -1.175781 6.125 -1.03125 6.09375 -0.90625 L 6.078125 -0.796875 C 6.085938 -0.671875 6.046875 -0.550781 5.953125 -0.4375 C 5.898438 -0.363281 5.84375 -0.25 5.78125 -0.09375 C 5.695312 0.101562 5.535156 0.226562 5.296875 0.28125 C 5.171875 0.300781 5.007812 0.3125 4.8125 0.3125 C 4.675781 0.3125 4.613281 0.253906 4.625 0.140625 C 4.625 -0.00390625 4.570312 -0.144531 4.46875 -0.28125 C 4.445312 -0.3125 4.429688 -0.347656 4.421875 -0.390625 L 4.375 -0.6875 C 4.34375 -0.800781 4.328125 -0.898438 4.328125 -0.984375 L 4.3125 -1.515625 L 4.28125 -2.046875 L 4.25 -2.203125 L 4.234375 -2.296875 L 4.21875 -2.375 C 4.195312 -2.445312 4.191406 -2.507812 4.203125 -2.5625 Z M 4.203125 -2.5625 "/></g></g></g><g fill="#ffffff" fill-opacity="1"><g transform="translate(31.876831, 22.191914)"><g><path d="M 3.328125 -3.34375 C 3.296875 -3.800781 3.144531 -4.273438 2.875 -4.765625 C 2.832031 -4.828125 2.773438 -4.875 2.703125 -4.90625 L 1.609375 -5.25 C 1.535156 -5.269531 1.488281 -5.257812 1.46875 -5.21875 C 1.4375 -5.1875 1.441406 -5.148438 1.484375 -5.109375 C 1.546875 -5.023438 1.585938 -4.929688 1.609375 -4.828125 C 1.628906 -4.753906 1.640625 -4.65625 1.640625 -4.53125 C 1.640625 -4.414062 1.65625 -4.296875 1.6875 -4.171875 L 1.765625 -3.8125 C 1.847656 -3.5 1.890625 -3.253906 1.890625 -3.078125 L 1.921875 -2.578125 L 1.96875 -2.0625 C 2.007812 -1.625 2.023438 -1.285156 2.015625 -1.046875 C 2.003906 -0.910156 2.0625 -0.878906 2.1875 -0.953125 C 2.695312 -1.234375 3.007812 -1.59375 3.125 -2.03125 C 3.25 -2.457031 3.316406 -2.894531 3.328125 -3.34375 Z M 2.09375 0.109375 C 2.082031 0.304688 2.101562 0.570312 2.15625 0.90625 L 2.203125 1.28125 C 2.222656 1.414062 2.226562 1.539062 2.21875 1.65625 C 2.195312 2.125 2.1875 2.488281 2.1875 2.75 C 2.1875 3.070312 2.046875 3.304688 1.765625 3.453125 C 1.691406 3.484375 1.617188 3.535156 1.546875 3.609375 L 1.359375 3.796875 C 1.203125 3.960938 1.066406 3.96875 0.953125 3.8125 C 0.921875 3.75 0.863281 3.710938 0.78125 3.703125 C 0.476562 3.640625 0.316406 3.425781 0.296875 3.0625 L 0.265625 2.703125 L 0.203125 2.34375 C 0.160156 2.019531 0.132812 1.78125 0.125 1.625 C 0.0625 0.300781 0.0234375 -0.820312 0.015625 -1.75 C 0.00390625 -3.28125 0.046875 -4.546875 0.140625 -5.546875 C 0.171875 -5.847656 0.3125 -6.023438 0.5625 -6.078125 C 0.832031 -6.128906 1.015625 -6.007812 1.109375 -5.71875 C 1.140625 -5.613281 1.207031 -5.554688 1.3125 -5.546875 C 1.34375 -5.535156 1.382812 -5.535156 1.4375 -5.546875 L 1.578125 -5.546875 C 2.460938 -5.648438 3.226562 -5.253906 3.875 -4.359375 C 4.207031 -3.890625 4.410156 -3.320312 4.484375 -2.65625 C 4.535156 -2.164062 4.351562 -1.679688 3.9375 -1.203125 C 3.507812 -0.703125 3.046875 -0.445312 2.546875 -0.4375 C 2.160156 -0.425781 2.007812 -0.242188 2.09375 0.109375 Z M 2.09375 0.109375 "/></g></g></g></svg>