<svg width="51" height="51" viewBox="0 0 51 51" fill="none" xmlns="http://www.w3.org/2000/svg">
<g clip-path="url(#clip0_221_7)">
<path d="M2.99625 2.40137L0 5.39762L9.32875 14.7264L14.025 24.6289L11.1562 29.8351C10.8162 30.4301 10.625 31.1314 10.625 31.8751C10.625 34.2126 12.5375 36.1251 14.875 36.1251H30.7275L33.66 39.0576C32.5975 39.8226 31.8962 41.0764 31.8962 42.5001C31.8962 44.8376 33.7875 46.7501 36.125 46.7501C37.5488 46.7501 38.8025 46.0489 39.5675 44.9651L45.6025 51.0001L48.5988 48.0039L2.99625 2.40137ZM14.875 31.8751L17.2125 27.6251H22.2275L26.4775 31.8751H14.875ZM42.5 8.50012H15.13L19.38 12.7501H38.9087L33.0438 23.3751H29.9837L34.1062 27.4976C35.2537 27.2001 36.21 26.4564 36.7625 25.4364L44.37 11.6451C45.1562 10.2426 44.115 8.50012 42.5 8.50012ZM14.875 38.2501C12.5375 38.2501 10.6463 40.1626 10.6463 42.5001C10.6463 44.8376 12.5375 46.7501 14.875 46.7501C17.2125 46.7501 19.125 44.8376 19.125 42.5001C19.125 40.1626 17.2125 38.2501 14.875 38.2501Z" fill="white"/>
</g>
<defs>
<clipPath id="clip0_221_7">
<rect width="51" height="51" fill="white"/>
</clipPath>
</defs>
</svg>
