<svg width="138" height="129" viewBox="0 0 138 129" fill="none" xmlns="http://www.w3.org/2000/svg">
<path d="M69.0003 0.75C31.2803 0.75 0.666992 29.31 0.666992 64.5C0.666992 99.69 31.2803 128.25 69.0003 128.25C106.72 128.25 137.334 99.69 137.334 64.5C137.334 29.31 106.72 0.75 69.0003 0.75ZM69.0003 115.5C38.8653 115.5 14.3337 92.6137 14.3337 64.5C14.3337 36.3862 38.8653 13.5 69.0003 13.5C99.1353 13.5 123.667 36.3862 123.667 64.5C123.667 92.6137 99.1353 115.5 69.0003 115.5ZM100.365 36.3225L55.3337 78.3337L37.6353 61.8862L28.0003 70.875L55.3337 96.375L110 45.375L100.365 36.3225Z" fill="white"/>
</svg>
